<svg display="none" xmlns="http://www.w3.org/2000/svg">
    <symbol id="google" viewBox="0 0 101 34">
        <g>
            <path d="M97.6569 20.6159L100.457 22.4828C99.5484 23.8216 97.3745 26.1185 93.616 26.1185C88.9487 26.1185 85.4729 22.5075 85.4729 17.9137C85.4729 13.0254 88.9856 9.70914 93.223 9.70914C97.4849 9.70914 99.5729 13.099 100.249 14.9291L100.617 15.8626L89.6366 20.4071C90.4718 22.053 91.7739 22.8882 93.616 22.8882C95.4585 22.8882 96.7357 21.9793 97.6569 20.6159ZM89.0471 17.656L96.3796 14.6098C95.9743 13.5905 94.7708 12.8659 93.3334 12.8659C91.5036 12.8659 88.9611 14.4872 89.0471 17.656Z"
                  fill="#FF302F"/>
            <path d="M80.1792 1.3447H83.7163V25.3691H80.1792V1.3445V1.3447Z" fill="#20B15A"/>
            <path d="M74.6033 10.3477H78.0178V24.9392C78.0178 30.9943 74.4436 33.4876 70.2184 33.4876C66.239 33.4876 63.8441 30.8102 62.9474 28.6362L66.0793 27.3341C66.6442 28.6729 68.0076 30.2575 70.2184 30.2575C72.9328 30.2575 74.6033 28.5747 74.6033 25.4305V24.2515H74.4805C73.6698 25.234 72.1222 26.1182 70.1571 26.1182C66.0547 26.1182 62.2961 22.544 62.2961 17.9383C62.2961 13.3077 66.0547 9.69683 70.1571 9.69683C72.11 9.69683 73.6698 10.5689 74.4805 11.5269H74.6033V10.3479V10.3477ZM74.8488 17.9383C74.8488 15.0396 72.9205 12.927 70.4641 12.927C67.9829 12.927 65.895 15.0396 65.895 17.9383C65.895 20.7999 67.9829 22.8757 70.4641 22.8757C72.9207 22.8881 74.849 20.7999 74.849 17.9383H74.8488Z"
                  fill="#3686F7"/>
            <path d="M42.8779 17.8767C42.8779 22.6055 39.1933 26.0813 34.6733 26.0813C30.1535 26.0813 26.4688 22.5933 26.4688 17.8767C26.4688 13.1235 30.1535 9.6599 34.6733 9.6599C39.1933 9.6599 42.8779 13.1235 42.8779 17.8767ZM39.2915 17.8767C39.2915 14.9291 37.1543 12.9023 34.6733 12.9023C32.1924 12.9023 30.0552 14.9291 30.0552 17.8767C30.0552 20.7999 32.1924 22.8512 34.6733 22.8512C37.1545 22.8512 39.2915 20.7999 39.2915 17.8767Z"
                  fill="#FF302F"/>
            <path d="M60.7979 17.9137C60.7979 22.6425 57.1131 26.1183 52.5933 26.1183C48.0733 26.1183 44.3887 22.6423 44.3887 17.9137C44.3887 13.1605 48.0733 9.70914 52.5933 9.70914C57.1131 9.70914 60.7979 13.1483 60.7979 17.9137ZM57.199 17.9137C57.199 14.9661 55.062 12.9393 52.5808 12.9393C50.0999 12.9393 47.9627 14.9661 47.9627 17.9137C47.9627 20.8369 50.0999 22.8882 52.5808 22.8882C55.0742 22.8882 57.199 20.8247 57.199 17.9137Z"
                  fill="#FFBA40"/>
            <path d="M12.9825 22.5197C7.83609 22.5197 3.80763 18.3682 3.80763 13.2218C3.80763 8.07562 7.83609 3.92414 12.9825 3.92414C15.7583 3.92414 17.7848 5.01721 19.2832 6.41747L21.7521 3.94878C19.6642 1.94678 16.8761 0.423487 12.9825 0.423487C5.93247 0.423684 0 6.172 0 13.2218C0 20.272 5.93247 26.0201 12.9825 26.0201C16.7901 26.0201 19.6642 24.7673 21.9118 22.4337C24.2208 20.1245 24.9332 16.882 24.9332 14.2536C24.9332 13.4306 24.835 12.5832 24.7244 11.9568H12.9825V15.3713H21.3468C21.1011 17.5085 20.4256 18.9701 19.4307 19.9648C18.227 21.1809 16.3234 22.5197 12.9825 22.5197Z"
                  fill="#3686F7"/>
        </g>
    </symbol>

    <symbol id="yandex" viewBox="0 0 81 32">
        <g>
            <path d="M13.2858 0.289185H9.04171C4.79746 0.289185 1.14559 3.44767 1.14559 9.56711C1.14559 13.2191 2.92211 15.9828 5.98191 17.3646L0.257173 27.6296C0.059817 27.9258 0.257173 28.2218 0.553364 28.2218H3.2183C3.41565 28.2218 3.61301 28.1231 3.71169 27.9258L8.94304 17.8581H10.8182V27.9258C10.8182 28.0245 10.9171 28.2218 11.1144 28.2218H13.4833C13.6807 28.2218 13.7794 28.1231 13.7794 27.9258V0.683896C13.6807 0.387862 13.582 0.289185 13.2858 0.289185ZM10.8182 15.4894H9.23907C2.42872 15.4894 2.92211 2.65808 8.94304 2.65808H10.9171V15.4894H10.8182Z" fill="#FF0000"/>
            <path d="M27.4988 9.56713H25.1301C24.9327 9.56713 24.8339 9.66581 24.8339 9.86332V16.9697H20.491V9.86332C20.491 9.66597 20.3923 9.56713 20.1949 9.56713H17.9247C17.7273 9.56713 17.6287 9.66581 17.6287 9.86332V27.9258C17.6287 28.1231 17.7273 28.2218 17.9247 28.2218H20.2936C20.491 28.2218 20.5898 28.1231 20.5898 27.9258V19.2399H24.9326V27.9258C24.9326 28.1231 25.0312 28.2218 25.2288 28.2218H27.5975C27.7949 28.2218 27.8937 28.1231 27.8937 27.9258V9.86332C27.795 9.66597 27.6963 9.56713 27.499 9.56713H27.4988ZM80.798 25.7544C80.798 25.6557 80.6993 25.6557 80.6006 25.6557C79.6135 25.6557 73.5927 28.5182 73.5927 19.0427C73.5927 14.8973 75.1719 9.0739 78.9226 12.5284C79.0213 12.6271 79.12 12.6271 79.2186 12.6271C79.3173 12.6271 79.416 12.5284 79.5148 12.3311L80.5018 10.6531C80.6004 10.5544 80.6004 10.4557 80.6004 10.357C80.6004 10.1597 80.4031 10.0608 80.2057 9.96216C73.6914 6.705 70.3356 12.7258 70.3356 19.7336C70.3356 28.8142 76.9486 30.0973 80.6991 27.3337C80.8965 27.235 80.8965 27.0375 80.8965 26.939L80.798 25.7544ZM64.6108 17.957L69.1511 9.7648C69.2498 9.66597 69.1511 9.46861 69.0525 9.46861H66.7822C66.0913 9.46861 65.894 9.66597 65.6965 10.1595C65.4991 10.6531 62.1433 17.6609 61.7484 17.957V9.76464C61.7484 9.66581 61.6497 9.46845 61.551 9.46845H59.0835C58.9848 9.46845 58.8861 9.56713 58.8861 9.76464V27.9258C58.8861 28.0245 58.9848 28.2218 59.0835 28.2218H61.551C61.7484 28.2218 61.7484 28.1231 61.7484 27.9258V18.549C62.0446 18.7464 66.19 27.3336 66.2887 27.6296C66.486 28.0243 66.8809 28.2218 67.3745 28.2218H69.842C70.0394 28.2218 70.0394 28.1231 69.9407 27.9258L64.6108 17.957ZM42.995 25.8532H42.5015C41.9094 25.8532 41.8106 25.6559 41.8106 25.1622V9.76464C41.8106 9.56729 41.7119 9.46845 41.6132 9.46845H34.0131C33.8158 9.46845 33.7171 9.56713 33.7171 9.76464C33.7171 13.9101 33.8158 20.8192 31.052 25.8531H30.2626C30.0652 25.8531 29.9664 25.9518 29.9664 26.1491V31.5777C29.9664 31.775 30.1637 31.8739 30.2626 31.8739H32.0391C32.4338 31.8739 32.6313 31.5777 32.6313 31.2816V28.2218H40.6263V31.5777C40.6263 31.6765 40.725 31.8739 40.9223 31.8739H42.8964C43.0937 31.8739 43.3899 31.6765 43.3899 31.2816V26.1491C43.2912 25.9518 43.1925 25.8531 42.9952 25.8531L42.995 25.8532ZM38.8496 25.8532H33.3221C34.9014 23.287 36.3819 19.1416 36.3819 11.8375H38.8495V25.8532H38.8496ZM50.6938 9.0739C46.6471 9.0739 44.7717 14.1076 44.7717 19.6348C44.7717 28.7155 51.0887 30.0973 55.4314 27.4324C55.6288 27.3337 55.6288 27.235 55.6288 27.1364L55.3328 25.8532C55.3328 25.7544 55.2341 25.6559 55.0367 25.6559C53.4574 25.6559 47.9302 28.4193 47.9302 19.4376C49.9042 19.635 49.9042 19.635 55.8263 19.635C55.7276 15.0947 55.2342 9.0739 50.6938 9.0739ZM48.029 17.3644C48.029 10.1592 52.7667 8.77739 52.7667 17.1671C50.694 17.1671 49.8057 17.1671 48.029 17.3644Z" fill="black"/>
        </g>
    </symbol>


    <symbol id="instagram" viewBox="0 0 112 32">
        <g>
            <path d="M6.18403 0.257432C3.90654 1.21142 1.4032 3.90311 0.612502 7.28436C-0.389009 11.567 3.77792 13.3787 4.11997 12.7855C4.52219 12.0876 3.37331 11.8518 3.13677 9.62943C2.83113 6.75919 4.16553 3.55213 5.84504 2.14491C6.15678 1.88331 6.14217 2.24737 6.14217 2.92035C6.14217 4.12395 6.07568 14.9291 6.07568 17.1841C6.07568 20.2353 5.94968 21.1989 5.72317 22.1511C5.49405 23.1158 5.12519 23.7679 5.40445 24.019C5.71663 24.2998 7.04951 23.6316 7.82102 22.5549C8.74623 21.2634 9.07019 19.7121 9.1284 18.028C9.19859 15.9975 9.19554 12.7754 9.19859 10.9377C9.20121 9.25228 9.22693 4.31689 9.16894 1.34985C9.15477 0.621717 7.13649 -0.141733 6.18403 0.257432Z" fill="black"/>
            <path d="M87.0512 14.5374C86.9777 16.1238 86.6265 17.3636 86.1907 18.2383C85.347 19.9315 83.5965 20.4571 82.8531 18.0233C82.448 16.6965 82.4291 14.4808 82.7201 12.6292C83.0166 10.7433 83.8446 9.31885 85.2151 9.44726C86.5672 9.57435 87.2001 11.3164 87.0512 14.5377V14.5374ZM64.2589 24.3794C64.2405 27.0151 63.8257 29.326 62.9362 29.9974C61.6744 30.9492 59.9786 30.235 60.3298 28.3118C60.6404 26.6098 62.11 24.8717 64.2626 22.7479C64.2626 22.7479 64.2669 23.2323 64.2589 24.3794ZM63.9144 14.522C63.8372 15.9669 63.4627 17.4181 63.054 18.2383C62.2103 19.9315 60.4471 20.4608 59.7163 18.0233C59.2166 16.3578 59.3363 14.2026 59.5833 12.8444C59.9042 11.0823 60.6821 9.44747 62.0784 9.44747C63.4361 9.44747 64.1058 10.9371 63.9144 14.522ZM50.711 14.5002C50.6282 16.0301 50.3297 17.3091 49.8507 18.2383C48.984 19.92 47.2691 20.4532 46.5131 18.0233C45.9679 16.2712 46.1534 13.8823 46.3801 12.5917C46.7167 10.6766 47.5595 9.31885 48.8752 9.44747C50.2266 9.57959 50.8834 11.3164 50.711 14.5002ZM111.219 16.2874C110.888 16.2874 110.738 16.6279 110.613 17.2008C110.18 19.1942 109.725 19.644 109.139 19.644C108.484 19.644 107.895 18.6573 107.744 16.6817C107.625 15.1282 107.644 12.2684 107.796 9.42371C107.827 8.83924 107.666 8.26088 106.098 7.69145C105.424 7.44641 104.443 7.08562 103.955 8.26415C102.576 11.5939 102.036 14.2375 101.909 15.3109C101.902 15.3665 101.834 15.3781 101.822 15.2481C101.741 14.3881 101.56 12.825 101.538 9.54143C101.533 8.90072 101.398 8.35549 100.691 7.90902C100.232 7.61907 98.8384 7.10676 98.3368 7.71652C97.9021 8.21488 97.3985 9.55648 96.8755 11.147C96.4504 12.4398 96.1544 13.314 96.1544 13.314C96.1544 13.314 96.16 9.82637 96.1651 8.5033C96.1672 8.00429 95.825 7.83795 95.7216 7.80787C95.2573 7.67314 94.3417 7.44794 93.9532 7.44794C93.4736 7.44794 93.3563 7.71565 93.3563 8.10631C93.3563 8.15754 93.2806 12.6981 93.2806 15.8731C93.2806 16.0111 93.2806 16.1616 93.2813 16.3216C93.0162 17.7809 92.1562 19.7617 91.2209 19.7617C90.2844 19.7617 89.8427 18.9337 89.8427 15.1485C89.8427 12.9403 89.909 11.98 89.9415 10.3829C89.9604 9.46295 89.9971 8.75662 89.9949 8.59639C89.9879 8.10479 89.1381 7.85692 88.7425 7.76536C88.345 7.67314 87.9997 7.63717 87.73 7.65265C87.3483 7.67445 87.0782 7.9245 87.0782 8.26894C87.0782 8.45381 87.0804 8.8048 87.0804 8.8048C86.5888 8.03219 85.7981 7.49459 85.272 7.33872C83.855 6.91797 82.3765 7.29076 81.2612 8.85145C80.3748 10.0912 79.8405 11.4958 79.6301 13.5135C79.4764 14.9887 79.5266 16.4844 79.7999 17.7495C79.4697 19.177 78.8568 19.7617 78.1856 19.7617C77.2111 19.7617 76.5048 18.1716 76.5868 15.4208C76.6408 13.6116 77.0029 12.3419 77.3986 10.505C77.5674 9.72194 77.4302 9.31209 77.0864 8.91925C76.771 8.55889 76.0989 8.37468 75.1331 8.60096C74.4451 8.76251 73.4612 8.93626 72.5611 9.06967C72.5611 9.06967 72.6156 8.85276 72.6601 8.47082C72.8942 6.46736 70.717 6.62977 70.0222 7.26961C69.6078 7.65178 69.3255 8.10239 69.2184 8.91249C69.0484 10.1983 70.097 10.8048 70.097 10.8048C69.7532 12.3796 68.9098 14.4367 68.039 15.9242C67.5727 16.721 67.2161 17.3115 66.7554 17.9392C66.7404 15.4204 66.7568 12.9015 66.8047 10.3831C66.8237 9.46317 66.8605 8.77559 66.8586 8.61513C66.8533 8.25586 66.6434 8.11983 66.2067 7.94804C65.8204 7.79588 65.3639 7.6908 64.8902 7.65374C64.2924 7.60752 63.9323 7.92428 63.9419 8.29925C63.9436 8.3701 63.9436 8.8048 63.9436 8.8048C63.452 8.03219 62.6613 7.49459 62.1353 7.33872C60.7183 6.91797 59.2398 7.29076 58.1244 8.85145C57.2383 10.0912 56.6579 11.8313 56.4933 13.4982C56.3403 15.0515 56.3684 16.3715 56.5773 17.4838C56.3521 18.5973 55.7042 19.7619 54.9719 19.7619C54.0353 19.7619 53.5025 18.9337 53.5025 15.1485C53.5025 12.9403 53.5688 11.98 53.6015 10.3829C53.6205 9.46317 53.6569 8.75662 53.6549 8.59639C53.6479 8.10479 52.7979 7.85713 52.4023 7.76536C51.9885 7.66943 51.6312 7.63455 51.3567 7.65483C50.9948 7.68164 50.7402 8.00581 50.7402 8.24758V8.8048C50.2486 8.03219 49.4579 7.49459 48.9319 7.33872C47.5148 6.91797 46.0446 7.29686 44.921 8.85145C44.1885 9.86495 43.5953 10.9885 43.2901 13.476C43.2018 14.1947 43.1628 14.8681 43.1681 15.4971C42.8759 17.2838 41.5853 19.3431 40.53 19.3431C39.9124 19.3431 39.324 18.145 39.324 15.5919C39.324 12.1911 39.5346 7.34875 39.5703 6.88222C39.5703 6.88222 40.9039 6.85955 41.162 6.8565C41.8273 6.84908 42.4297 6.865 43.3159 6.81944C43.7602 6.79698 44.1883 5.20185 43.7296 5.00455C43.5217 4.91517 42.0525 4.83712 41.47 4.8247C40.9804 4.8138 39.617 4.71264 39.617 4.71264C39.617 4.71264 39.7393 1.49861 39.7678 1.15918C39.7918 0.875991 39.4256 0.730364 39.2159 0.642073C38.7053 0.426249 38.2486 0.322697 37.7073 0.211079C36.9591 0.0567317 36.6199 0.207809 36.5536 0.83893C36.4538 1.79706 36.4021 4.60342 36.4021 4.60342C35.8531 4.60342 33.9779 4.49617 33.4289 4.49617C32.9188 4.49617 32.3681 6.69016 33.0736 6.71719C33.885 6.74858 35.2992 6.77605 36.2366 6.80396C36.2366 6.80396 36.1948 11.7261 36.1948 13.246C36.1948 13.4073 36.1956 13.5632 36.1965 13.7143C35.6805 16.4033 33.8632 17.8561 33.8632 17.8561C34.2534 16.077 33.4562 14.7408 32.0202 13.6098C31.4911 13.1932 30.4466 12.4043 29.2781 11.5397C29.2781 11.5397 29.9548 10.8726 30.5552 9.53053C30.9803 8.5796 30.9988 7.49198 29.9548 7.25196C28.23 6.85519 26.8079 8.12201 26.3837 9.47451C26.055 10.5222 26.2302 11.2994 26.8742 12.1069C26.9211 12.166 26.9723 12.2264 27.0246 12.287C26.6355 13.0373 26.1005 14.0478 25.6475 14.8313C24.3901 17.007 23.4402 18.7275 22.7223 18.7275C22.1485 18.7275 22.1562 16.9804 22.1562 15.3447C22.1562 13.9347 22.2604 11.8146 22.3437 9.61992C22.3711 8.89396 22.0079 8.48041 21.3997 8.10588C21.03 7.87828 20.241 7.43094 19.7841 7.43094C19.1 7.43094 17.1266 7.52402 15.2622 12.9174C15.0272 13.5972 14.5655 14.8359 14.5655 14.8359L14.6054 8.35004C14.6054 8.19788 14.5243 8.05094 14.3388 7.95044C14.0246 7.77974 13.1855 7.43094 12.4393 7.43094C12.0839 7.43094 11.9063 7.59618 11.9063 7.92581L11.8413 18.073C11.8413 18.8441 11.8614 19.7436 11.9377 20.1369C12.0135 20.5306 12.1367 20.851 12.2889 21.0416C12.4413 21.2319 12.6172 21.3773 12.9073 21.437C13.1775 21.4926 14.6564 21.6825 14.7334 21.1175C14.8253 20.4399 14.8291 19.7074 15.6056 16.9749C16.8146 12.7208 18.3908 10.6454 19.132 9.90812C19.2617 9.77949 19.4095 9.77165 19.4023 9.98246C19.371 10.9151 19.2596 13.246 19.1848 15.2255C18.984 20.524 19.9478 21.5062 21.3254 21.5062C22.3792 21.5062 23.8647 20.4591 25.457 17.8086C26.3442 16.3315 27.2273 14.852 28.1064 13.37C28.5888 13.8167 29.1306 14.2974 29.6716 14.811C30.9295 16.0048 31.3424 17.1393 31.0684 18.2154C30.8591 19.0379 30.0697 19.8857 28.6651 19.0619C28.2557 18.8214 28.0809 18.6355 27.6693 18.3645C27.4482 18.2191 27.1105 18.1755 26.908 18.3281C26.3822 18.7244 26.0813 19.2289 25.9095 19.8532C25.7426 20.4608 26.351 20.7819 26.9819 21.063C27.525 21.3047 28.6924 21.5238 29.4366 21.5487C32.3372 21.6457 34.6609 20.1482 36.2785 16.2854C36.568 19.6215 37.8001 21.5092 39.9412 21.5092C41.3726 21.5092 42.8077 19.659 43.4353 17.8389C43.6154 18.5808 43.8822 19.226 44.2267 19.7717C45.8763 22.3856 49.0766 21.8231 50.6842 19.6034C51.1812 18.9176 51.2569 18.6712 51.2569 18.6712C51.4914 20.7669 53.1792 21.4992 54.1454 21.4992C55.2278 21.4992 56.3451 20.9875 57.1284 19.2243C57.2202 19.4157 57.3204 19.5986 57.4299 19.7717C59.0795 22.3856 62.28 21.8231 63.8876 19.6034C63.9635 19.4992 64.0293 19.405 64.0866 19.32L64.1337 20.6967L62.6537 22.0542C60.1728 24.328 58.2884 26.0524 58.1497 28.0609C57.9731 30.6218 60.049 31.5736 61.6217 31.6983C63.2887 31.8306 64.7191 30.9089 65.5968 29.619C66.3694 28.4834 66.8751 26.0395 66.8378 23.626C66.8232 22.6594 66.7986 21.4305 66.7796 20.1131C67.6506 19.1018 68.6318 17.8234 69.5352 16.3275C70.5197 14.697 71.5749 12.5074 72.1151 10.8032C72.1151 10.8032 73.0318 10.8113 74.0102 10.7472C74.323 10.7267 74.413 10.7908 74.3551 11.0199C74.2853 11.2972 73.119 15.7953 74.1835 18.7918C74.9118 20.8432 76.5541 21.5029 77.5277 21.5029C78.6676 21.5029 79.7579 20.6422 80.3421 19.3643C80.4127 19.5066 80.4862 19.6444 80.5667 19.7719C82.2163 22.3858 85.4055 21.8196 87.0244 19.6034C87.3897 19.1033 87.5971 18.6712 87.5971 18.6712C87.9443 20.8404 89.6313 21.5103 90.5975 21.5103C91.6038 21.5103 92.5591 21.0976 93.3338 19.264C93.3665 20.0715 93.4173 20.7316 93.4978 20.9396C93.5468 21.0671 93.8328 21.2267 94.0408 21.3038C94.9617 21.6452 95.9004 21.4839 96.2479 21.4137C96.4886 21.3649 96.6763 21.1717 96.702 20.6734C96.7696 19.3643 96.7282 17.1648 97.1249 15.53C97.7909 12.7869 98.4125 11.7228 98.7072 11.1961C98.8722 10.9007 99.0582 10.8521 99.0649 11.1645C99.0789 11.7967 99.1103 13.6526 99.3684 16.1465C99.5581 17.9804 99.811 19.0645 100.006 19.4079C100.561 20.3889 101.247 20.4353 101.805 20.4353C102.161 20.4353 102.904 20.3372 102.837 19.7129C102.805 19.4085 102.861 17.5276 103.518 14.825C103.947 13.06 104.662 11.4655 104.92 10.8824C105.015 10.6674 105.059 10.8368 105.058 10.87C105.003 12.0853 104.882 16.0608 105.377 18.2352C106.048 21.1807 107.99 21.5103 108.666 21.5103C110.111 21.5103 111.292 20.4116 111.69 17.5204C111.786 16.8245 111.644 16.2874 111.219 16.2874Z" fill="black"/>

        </g>
    </symbol>



</svg>
